<?xml version="1.0" standalone="no"?>
<!DOCTYPE svg PUBLIC "-//W3C//DTD SVG 20010904//EN"
 "http://www.w3.org/TR/2001/REC-SVG-20010904/DTD/svg10.dtd">
<svg version="1.0" xmlns="http://www.w3.org/2000/svg"
 width="452.000000pt" height="466.000000pt" viewBox="0 0 452.000000 466.000000"
 preserveAspectRatio="xMidYMid meet">

<g transform="translate(0.000000,466.000000) scale(0.100000,-0.100000)"
fill="#000000" stroke="none">
<path d="M3035 4124 c-49 -8 -166 -24 -260 -37 l-170 -22 52 -32 52 -32 177
24 c98 14 190 25 206 25 l28 0 0 -1060 c0 -841 -3 -1060 -12 -1060 -7 0 -139
-16 -293 -36 l-280 -36 -40 -39 c-48 -47 -49 -47 132 -19 71 10 209 31 308 46
99 14 182 28 185 31 2 2 -1 8 -8 12 -8 4 2 8 23 8 24 0 32 -3 23 -9 -10 -7
-10 -9 2 -5 8 2 16 17 18 33 2 16 6 519 8 1118 5 901 3 1090 -8 1097 -16 11
-29 10 -143 -7z"/>
<path d="M2370 3221 c0 -848 -1 -881 -20 -943 -41 -134 -134 -239 -269 -306
-73 -36 -78 -37 -185 -37 -103 0 -115 2 -169 29 -205 104 -258 372 -116 585
52 79 116 133 209 179 72 35 79 37 181 37 103 0 109 -1 178 -37 l71 -36 0 109
0 109 -27 11 c-69 27 -186 40 -265 29 -167 -23 -279 -80 -403 -204 -143 -144
-207 -288 -208 -471 -2 -313 211 -534 514 -535 75 0 197 28 276 64 71 33 192
126 242 185 55 65 119 187 144 274 21 70 21 93 24 885 1 447 -1 822 -5 832 -6
16 -88 76 -151 109 l-21 12 0 -880z"/>
<path d="M1890 3970 c-190 -26 -355 -50 -366 -54 -12 -4 -25 -17 -28 -29 -8
-31 -8 -917 1 -917 4 0 22 10 40 23 l33 22 0 413 c0 321 3 414 13 417 6 3 131
20 277 40 146 19 297 39 335 44 39 6 76 11 83 11 7 0 12 15 12 40 0 37 -2 40
-27 39 -16 -1 -183 -23 -373 -49z"/>
<path d="M2634 3932 c4 -7 2 -12 -5 -12 -9 0 -10 -88 -5 -367 4 -201 9 -370
12 -375 3 -4 2 -8 -3 -8 -11 0 -10 -762 1 -779 6 -9 5 -12 -1 -8 -6 4 -17 -27
-27 -74 -61 -283 -262 -506 -541 -600 -60 -20 -89 -24 -200 -24 -109 1 -140 4
-194 23 -171 61 -297 192 -357 369 -22 64 -27 97 -27 183 -1 214 77 386 251
552 134 128 326 208 498 208 43 0 106 -7 139 -15 79 -19 77 -20 73 18 -3 29
-7 33 -53 45 -70 18 -227 17 -310 -2 -380 -87 -665 -434 -666 -811 0 -131 13
-190 67 -302 75 -157 206 -267 379 -319 84 -25 255 -25 355 0 162 40 298 123
422 255 62 67 154 205 162 244 2 7 9 26 16 42 6 17 13 41 15 55 1 14 6 33 10
43 4 9 5 30 3 47 -2 16 0 26 5 23 5 -3 6 4 2 17 -5 16 -4 20 4 16 13 -9 11 16
-3 25 -4 4 -3 15 2 26 13 24 14 365 1 357 -5 -3 -9 -1 -9 5 0 5 3 12 8 14 10
7 7 956 -3 986 -6 17 -5 22 3 17 7 -4 12 -3 12 3 0 5 -4 13 -10 16 -13 8 -13
45 1 45 6 0 8 -9 4 -21 -5 -15 -4 -19 5 -14 6 4 9 16 7 27 -4 15 -1 18 16 13
12 -3 7 2 -10 12 -18 9 -33 22 -33 29 0 7 -5 16 -12 20 -7 4 -8 3 -4 -4z"/>
<path d="M2690 3826 c0 -2 7 -7 16 -10 8 -3 12 -2 9 4 -6 10 -25 14 -25 6z"/>
<path d="M2888 1301 c-139 -45 -196 -210 -117 -338 42 -67 152 -107 235 -84
103 28 159 103 158 212 0 84 -34 146 -99 184 -48 29 -131 41 -177 26z m116
-93 c38 -17 70 -89 62 -139 -12 -72 -51 -109 -117 -109 -50 0 -85 25 -104 74
-23 60 -13 110 30 153 36 36 81 43 129 21z"/>
<path d="M490 1089 l0 -210 48 3 47 3 2 70 c1 39 2 76 2 83 1 10 23 12 94 10
l92 -3 3 -82 3 -83 44 0 45 0 0 210 0 210 -45 0 -44 0 -3 -77 -3 -78 -92 -3
-93 -3 0 81 0 80 -50 0 -50 0 0 -211z"/>
<path d="M1146 1268 c-8 -18 -44 -107 -81 -198 -36 -91 -69 -171 -72 -177 -4
-10 9 -13 46 -13 l52 0 19 45 20 46 96 -3 97 -3 16 -42 c15 -43 16 -43 64 -43
60 0 63 -18 -37 230 l-74 185 -66 3 -67 3 -13 -33z m112 -130 c12 -35 22 -66
22 -70 0 -5 -25 -8 -55 -8 -42 0 -55 4 -55 15 0 24 44 125 55 125 6 0 20 -28
33 -62z"/>
<path d="M1580 1091 l0 -211 45 0 44 0 3 73 c3 69 4 72 28 75 21 2 34 -10 78
-73 l53 -75 55 0 c29 0 54 3 54 6 0 4 -22 32 -50 64 -27 32 -50 63 -50 69 0 6
15 17 34 25 19 8 42 26 52 41 23 35 23 114 1 149 -32 49 -70 60 -214 64 l-133
4 0 -211z m248 103 c27 -19 29 -55 3 -78 -15 -13 -34 -16 -87 -14 l-69 3 -3
39 c-2 21 -1 44 2 52 8 20 124 19 154 -2z"/>
<path d="M2090 1090 l0 -210 45 0 45 0 0 128 c1 152 7 150 66 -19 l39 -110 55
3 55 3 44 122 c24 68 48 120 52 117 5 -3 9 -59 9 -125 l0 -119 45 0 45 0 0
210 0 210 -65 0 c-59 0 -66 -2 -74 -22 -4 -13 -29 -85 -56 -161 -26 -76 -52
-136 -58 -134 -6 2 -28 55 -49 118 -21 63 -45 133 -54 157 l-16 42 -64 0 -64
0 0 -210z"/>
<path d="M3300 1090 l0 -210 45 0 45 0 0 114 c0 63 4 117 9 121 6 3 35 -30 67
-72 129 -177 115 -162 162 -163 23 0 42 5 42 10 1 6 1 99 1 208 l0 197 -45 3
-46 3 0 -120 c0 -71 -4 -121 -10 -121 -5 0 -46 54 -92 120 l-82 120 -48 0 -48
0 0 -210z"/>
<path d="M3832 1093 l3 -208 48 -3 47 -3 0 210 0 211 -50 0 -50 0 2 -207z"/>
<path d="M270 659 c0 -5 5 -7 10 -4 6 3 10 8 10 11 0 2 -4 4 -10 4 -5 0 -10
-5 -10 -11z"/>
<path d="M567 663 c-4 -3 -7 -15 -7 -26 0 -15 3 -17 13 -8 8 6 17 7 22 3 4 -4
2 3 -4 16 -13 24 -14 25 -24 15z"/>
<path d="M1690 662 c0 -4 16 -8 35 -8 21 0 30 3 22 8 -16 10 -57 10 -57 0z"/>
<path d="M1976 663 c-12 -12 -6 -33 9 -33 8 0 15 6 15 14 0 17 -14 28 -24 19z"/>
<path d="M2083 663 c-7 -2 -13 -11 -13 -19 0 -9 4 -13 9 -9 5 3 12 -5 14 -17
3 -15 5 -9 6 15 0 20 0 37 -1 36 -2 0 -9 -3 -15 -6z"/>
<path d="M2955 660 c3 -5 8 -10 11 -10 2 0 4 5 4 10 0 6 -5 10 -11 10 -5 0 -7
-4 -4 -10z"/>
<path d="M3391 637 c1 -18 3 -24 6 -14 2 9 9 15 14 12 5 -4 9 0 9 8 0 8 -7 17
-15 21 -12 4 -15 -2 -14 -27z"/>
<path d="M3840 660 c0 -5 4 -10 9 -10 6 0 13 5 16 10 3 6 -1 10 -9 10 -9 0
-16 -4 -16 -10z"/>
<path d="M3492 648 c6 -18 28 -21 28 -4 0 9 -7 16 -16 16 -9 0 -14 -5 -12 -12z"/>
<path d="M4200 600 c0 -19 3 -21 12 -12 9 9 9 15 0 24 -9 9 -12 7 -12 -12z"/>
<path d="M4278 612 c-17 -7 -17 -8 0 -18 15 -10 18 -8 19 7 1 11 1 19 0 18 -1
0 -10 -4 -19 -7z"/>
<path d="M260 594 c0 -8 5 -12 10 -9 6 3 10 10 10 16 0 5 -4 9 -10 9 -5 0 -10
-7 -10 -16z"/>
<path d="M1110 599 c0 -5 5 -7 10 -4 6 3 10 8 10 11 0 2 -4 4 -10 4 -5 0 -10
-5 -10 -11z"/>
<path d="M2975 590 c3 -5 8 -10 11 -10 2 0 4 5 4 10 0 6 -5 10 -11 10 -5 0 -7
-4 -4 -10z"/>
<path d="M3648 591 c12 -7 62 -4 62 5 0 2 -17 4 -37 4 -24 0 -33 -3 -25 -9z"/>
<path d="M849 563 c-13 -16 -12 -17 4 -4 16 13 21 21 13 21 -2 0 -10 -8 -17
-17z"/>
<path d="M635 560 c3 -5 10 -10 16 -10 5 0 9 5 9 10 0 6 -7 10 -16 10 -8 0
-12 -4 -9 -10z"/>
<path d="M3158 553 c7 -3 16 -2 19 1 4 3 -2 6 -13 5 -11 0 -14 -3 -6 -6z"/>
</g>
</svg>
